<?xml version="1.0" encoding="iso-8859-1"?>
<!-- Generator: Adobe Illustrator 19.0.0, SVG Export Plug-In . SVG Version: 6.00 Build 0)  -->
<svg xmlns="http://www.w3.org/2000/svg" xmlns:xlink="http://www.w3.org/1999/xlink" version="1.1" id="Capa_1" x="0px" y="0px" viewBox="0 0 496 496" style="enable-background:new 0 0 496 496;" xml:space="preserve">
<path style="fill:#FFA64D;" d="M256,400H32V80h224V400z"/>
<g>
	<rect x="88" y="448" style="fill:#333333;" width="96" height="16"/>
	<path style="fill:#333333;" d="M456.088,342.072L416,330.048V328.4c23.664-11.808,40-36.208,40-64.4v-16c0-39.696-32.296-72-72-72   s-72,32.304-72,72v16c0,28.2,16.336,52.592,40,64.4v1.64l-40.088,12.024c-9.36,2.808-17.456,7.888-23.912,14.456V166.56   l50.832,10.168l93.392-101.184l28.104,28.104L482.984,13l-90.64,22.664l28.56,28.56l-87.736,95.048L288,150.24V40   c0-22.056-17.944-40-40-40H40C17.944,0,0,17.944,0,40v416c0,22.056,17.944,40,40,40h208c9.04,0,17.296-3.128,24-8.208V496h48h8h112   h8h48V395.712C496,370.792,479.96,349.232,456.088,342.072z M461.008,35l-9.344,37.352l-28.016-28.016L461.008,35z M425.92,349.728   l11.344,22.696l-32.36,16.184L414,346.16L425.92,349.728z M373.408,436.76l-26.768-22.304l16.64-24.96L373.408,436.76z    M404.72,389.496l16.64,24.96l-26.768,22.304L404.72,389.496z M328,264v-16c0-30.88,25.128-56,56-56s56,25.12,56,56v16   c0,30.872-25.128,56-56,56S328,294.872,328,264z M384,336c5.504,0,10.848-0.68,16-1.856v1.016l-16,74.664l-16-74.664v-1.016   C373.152,335.32,378.496,336,384,336z M353.992,346.152l9.096,42.448l-32.36-16.184l11.344-22.696L353.992,346.152z    M111.072,275.744l69.208-130.728L272,163.36v232.352V416H16V64h256v83.04l-100.28-20.056L96.928,268.256L111.072,275.744z M40,16   h208c13.232,0,24,10.768,24,24v8H16v-8C16,26.768,26.768,16,40,16z M248,480H40c-13.232,0-24-10.768-24-24v-24h256v24   C272,469.232,261.232,480,248,480z M312,432v48h-24v-24v-60.288c0-17.8,11.464-33.192,28.504-38.312l4.528-1.36l-11.768,23.536   l31.056,15.52l-14.96,22.448L376,459.752V480h-48v-48H312z M480,480h-24v-48h-16v48h-48v-20.248l50.64-42.208l-14.96-22.448   l31.056-15.52l-11.768-23.536l4.528,1.36c17.04,5.112,28.504,20.512,28.504,38.312V480z"/>
	<rect x="208" y="352" style="fill:#333333;" width="16" height="16"/>
	<rect x="144" y="352" style="fill:#333333;" width="48" height="16"/>
	<rect x="144" y="320" style="fill:#333333;" width="80" height="16"/>
</g>
<g>
</g>
<g>
</g>
<g>
</g>
<g>
</g>
<g>
</g>
<g>
</g>
<g>
</g>
<g>
</g>
<g>
</g>
<g>
</g>
<g>
</g>
<g>
</g>
<g>
</g>
<g>
</g>
<g>
</g>
</svg>
