<?xml version="1.0" encoding="iso-8859-1"?>
<!-- Generator: Adobe Illustrator 19.0.0, SVG Export Plug-In . SVG Version: 6.00 Build 0)  -->
<svg xmlns="http://www.w3.org/2000/svg" xmlns:xlink="http://www.w3.org/1999/xlink" version="1.1" id="Capa_1" x="0px" y="0px" viewBox="0 0 496 496" style="enable-background:new 0 0 496 496;" xml:space="preserve">
<g>
	<path style="fill:#FFA64D;" d="M328,384H168V224h160V384z"/>
	<path style="fill:#FFA64D;" d="M344,176H152V96h192V176z"/>
</g>
<g>
	<rect x="200" y="448" style="fill:#333333;" width="96" height="16"/>
	<rect x="152" y="192" style="fill:#333333;" width="16" height="16"/>
	<rect x="184" y="192" style="fill:#333333;" width="160" height="16"/>
	<path style="fill:#333333;" d="M471.552,270.224C486.296,260.128,496,243.176,496,224c0-30.88-25.128-56-56-56s-56,25.12-56,56   c0,22.808,13.728,42.448,33.344,51.168c-4.288,3.568-7.944,7.888-10.808,12.832H376V64V48v-8c0-22.056-17.944-40-40-40H160   c-22.056,0-40,17.944-40,40v8v16v224H89.472c-2.864-4.944-6.52-9.264-10.808-12.832C98.272,266.448,112,246.808,112,224   c0-30.88-25.128-56-56-56S0,193.12,0,224c0,19.176,9.704,36.128,24.448,46.224C9.872,278.472,0,294.096,0,312v64v8v112h96V384v-8   v-40h24v80v16v24c0,22.056,17.944,40,40,40h176c22.056,0,40-17.944,40-40v-24v-16v-80h24v40v8v112h96V384v-8v-64   C496,294.096,486.128,278.472,471.552,270.224z M400,224c0-22.056,17.944-40,40-40s40,17.944,40,40s-17.944,40-40,40   S400,246.056,400,224z M352,312c0-4.408,3.584-8,8-8h80c4.416,0,8,3.592,8,8s-3.584,8-8,8h-80C355.584,320,352,316.408,352,312z    M136,40c0-13.232,10.768-24,24-24h176c13.232,0,24,10.768,24,24v8H136V40z M144,312c0,4.408-3.584,8-8,8H56c-4.416,0-8-3.592-8-8   s3.584-8,8-8h80C140.416,304,144,307.592,144,312z M16,224c0-22.056,17.944-40,40-40s40,17.944,40,40s-17.944,40-40,40   S16,246.056,16,224z M16,384h32v96H16V384z M80,480H64v-96h16V480z M80,368H16v-56c0-17.648,14.352-32,32-32   c7.952,0,15.432,2.944,21.168,8H56c-13.232,0-24,10.768-24,24s10.768,24,24,24h24V368z M360,456c0,13.232-10.768,24-24,24H160   c-13.232,0-24-10.768-24-24v-24h224V456z M360,416H136v-80c13.232,0,24-10.768,24-24s-10.768-24-24-24V64h224v224   c-13.232,0-24,10.768-24,24s10.768,24,24,24V416z M440,336c13.232,0,24-10.768,24-24s-10.768-24-24-24h-13.168   c5.736-5.056,13.216-8,21.168-8c17.648,0,32,14.352,32,32v56h-64v-32H440z M416,384h16v96h-16V384z M480,480h-32v-96h32V480z"/>
</g>
<g>
</g>
<g>
</g>
<g>
</g>
<g>
</g>
<g>
</g>
<g>
</g>
<g>
</g>
<g>
</g>
<g>
</g>
<g>
</g>
<g>
</g>
<g>
</g>
<g>
</g>
<g>
</g>
<g>
</g>
</svg>
