<?xml version="1.0" encoding="iso-8859-1"?>
<!-- Generator: Adobe Illustrator 19.0.0, SVG Export Plug-In . SVG Version: 6.00 Build 0)  -->
<svg xmlns="http://www.w3.org/2000/svg" xmlns:xlink="http://www.w3.org/1999/xlink" version="1.1" id="Capa_1" x="0px" y="0px" viewBox="0 0 496 496" style="enable-background:new 0 0 496 496;" xml:space="preserve">
<g>
	<rect x="200" y="400" style="fill:#FFA64D;" width="96" height="48"/>
	<path style="fill:#FFA64D;" d="M432,184c-7.976,0-15.16-4.44-18.736-11.568L374.76,95.4c-4.424-8.84-6.76-18.728-6.76-28.616V64   c0-35.288,28.712-64,64-64s64,28.712,64,64v2.784c0,9.888-2.336,19.784-6.76,28.616l-38.504,77.024   C447.16,179.56,439.976,184,432,184z"/>
</g>
<g>
	<path style="fill:#333333;" d="M328.608,335.272l-37.744-13.728C313.152,307.336,328,282.456,328,254.112V240   c0-44.112-35.888-80-80-80s-80,35.888-80,80v14.112c0,28.336,14.848,53.216,37.136,67.432l-37.744,13.728   C139.048,345.584,120,372.784,120,402.936V496h256v-93.064C376,372.784,356.952,345.584,328.608,335.272z M184,254.112V240   c0-35.288,28.712-64,64-64s64,28.712,64,64v14.112c0,35.288-28.712,64-64,64S184,289.4,184,254.112z M248,334.112   c8.192,0,16.104-1.248,23.552-3.544c-2.096,11.112-11.84,19.544-23.552,19.544s-21.456-8.44-23.552-19.544   C231.896,332.864,239.808,334.112,248,334.112z M312,440h-16c-8.04,0-15.312,3.08-20.944,8h-54.112c-5.624-4.92-12.896-8-20.944-8   h-16v-48c0-4.416,3.592-8,8-8h112c4.408,0,8,3.584,8,8V440z M230.864,464h34.272c-0.672,2.576-1.136,5.224-1.136,8   c0,2.736,0.472,5.4,1.144,8h-34.288c0.672-2.6,1.144-5.264,1.144-8C232,469.224,231.536,466.576,230.864,464z M360,480h-77.832   c-1.392-2.416-2.168-5.16-2.168-8c0-8.824,7.176-16,16-16h48v-16h-16v-48c0-13.232-10.768-24-24-24H192c-13.232,0-24,10.768-24,24   v48h-16v16h48c8.824,0,16,7.176,16,16c0,2.84-0.776,5.584-2.168,8H136v-77.064c0-23.456,14.816-44.608,36.864-52.632l36.64-13.32   c4.744,16.792,20.208,29.128,38.496,29.128s33.752-12.336,38.496-29.128l36.64,13.32C345.184,358.328,360,379.488,360,402.936V480z   "/>
	<path style="fill:#333333;" d="M176,0H0v144h176V0z M88,69.24L28.848,16h118.304L88,69.24z M59.944,65.512L16,114.952V25.96   L59.944,65.512z M71.84,76.224L88,90.76l16.16-14.544L150.184,128H25.816L71.84,76.224z M116.056,65.512L160,25.96v88.992   L116.056,65.512z"/>
	<path style="fill:#333333;" d="M432,32c-17.648,0-32,14.352-32,32s14.352,32,32,32s32-14.352,32-32S449.648,32,432,32z M432,80   c-8.824,0-16-7.176-16-16s7.176-16,16-16s16,7.176,16,16S440.824,80,432,80z"/>
	<rect x="192" y="64" style="fill:#333333;" width="160" height="16"/>
	<rect x="424" y="296" style="fill:#333333;" width="16" height="16"/>
	<rect x="392" y="296" style="fill:#333333;" width="16" height="16"/>
	<rect x="360" y="296" style="fill:#333333;" width="16" height="16"/>
	<rect x="328" y="296" style="fill:#333333;" width="16" height="16"/>
	<rect x="424" y="264" style="fill:#333333;" width="16" height="16"/>
	<rect x="424" y="232" style="fill:#333333;" width="16" height="16"/>
	<rect x="424" y="200" style="fill:#333333;" width="16" height="16"/>
	<rect x="56" y="296" style="fill:#333333;" width="16" height="16"/>
	<rect x="88" y="296" style="fill:#333333;" width="16" height="16"/>
	<rect x="120" y="296" style="fill:#333333;" width="16" height="16"/>
	<rect x="152" y="296" style="fill:#333333;" width="16" height="16"/>
	<rect x="56" y="264" style="fill:#333333;" width="16" height="16"/>
	<rect x="56" y="232" style="fill:#333333;" width="16" height="16"/>
	<rect x="56" y="200" style="fill:#333333;" width="16" height="16"/>
</g>
<g>
</g>
<g>
</g>
<g>
</g>
<g>
</g>
<g>
</g>
<g>
</g>
<g>
</g>
<g>
</g>
<g>
</g>
<g>
</g>
<g>
</g>
<g>
</g>
<g>
</g>
<g>
</g>
<g>
</g>
</svg>
